# xmcd
#
# Track frame offsets: 
#        150
#        23218
#        42321
#        62160
#        78363
#        99454
#        120199
#        140466
#        159877
#        183093
#        204129
#        231945
#        332970
#
# Disc length: 4440 seconds
#
# Revision: 2
# Processed by: cddbd v1.5.2PL0 Copyright (c) Steve Scherf et al.
# Submitted via: ExactAudioCopy v1.0b3
#
DISCID=9f11560d
DTITLE=Suzana Horvat - na kraju dana
DYEAR=2005
DGENRE=ligt jazz - soul
TTITLE0=laz
TTITLE1=kreni prema suncu
TTITLE2=more
TTITLE3=u plavom
TTITLE4=jedino ljubav
TTITLE5=vjerujem
TTITLE6=kad sam s tobom
TTITLE7=na kraju dana
TTITLE8=ponekad
TTITLE9=dan i noc
TTITLE10=oprastam ti sve
TTITLE11=Data Track
TTITLE12=na kraju dana - remix
EXTD=
EXTT0=
EXTT1=
EXTT2=
EXTT3=
EXTT4=
EXTT5=
EXTT6=
EXTT7=
EXTT8=
EXTT9=
EXTT10=
EXTT11=
EXTT12=
PLAYORDER=
